<svg width="24" height="24" viewBox="0 0 24 24" fill="none" xmlns="http://www.w3.org/2000/svg">
<path fill-rule="evenodd" clip-rule="evenodd" d="M1.1371 16.2938C1.43867 16.2938 1.7279 16.4136 1.94115 16.6269C2.15439 16.8401 2.27419 17.1294 2.27419 17.4309V20.8468C2.27419 21.056 2.444 21.2258 2.65323 21.2258H20.8468C20.9473 21.2258 21.0437 21.1859 21.1148 21.1148C21.1859 21.0437 21.2258 20.9473 21.2258 20.8468V17.4309C21.2258 17.1294 21.3456 16.8401 21.5589 16.6269C21.7721 16.4136 22.0613 16.2938 22.3629 16.2938C22.6645 16.2938 22.9537 16.4136 23.167 16.6269C23.3802 16.8401 23.5 17.1294 23.5 17.4309V20.8468C23.5 21.5505 23.2205 22.2253 22.7229 22.7229C22.2253 23.2205 21.5505 23.5 20.8468 23.5H2.65323C1.94955 23.5 1.27469 23.2205 0.777112 22.7229C0.279536 22.2253 0 21.5505 0 20.8468V17.4309C0 17.1294 0.119801 16.8401 0.333048 16.6269C0.546295 16.4136 0.83552 16.2938 1.1371 16.2938ZM12.0563 0C12.3578 0 12.6471 0.119801 12.8603 0.333048C13.0736 0.546295 13.1934 0.83552 13.1934 1.1371V13.3965C13.1934 13.6981 13.0736 13.9873 12.8603 14.2006C12.6471 14.4138 12.3578 14.5336 12.0563 14.5336C11.7547 14.5336 11.4655 14.4138 11.2522 14.2006C11.039 13.9873 10.9192 13.6981 10.9192 13.3965V1.1371C10.9192 0.83552 11.039 0.546295 11.2522 0.333048C11.4655 0.119801 11.7547 0 12.0563 0Z" fill="white"/>
<path fill-rule="evenodd" clip-rule="evenodd" d="M6.17368 9.66687C6.38427 9.4513 6.67181 9.32813 6.97315 9.32444C7.27449 9.32074 7.56497 9.43682 7.78078 9.64716L12.0563 13.8241L16.3317 9.64716C16.4381 9.54061 16.5645 9.45623 16.7038 9.39892C16.843 9.34162 16.9922 9.31253 17.1427 9.31334C17.2933 9.31415 17.4422 9.34485 17.5807 9.40366C17.7193 9.46246 17.8449 9.5482 17.9501 9.6559C18.0552 9.76361 18.138 9.89112 18.1935 10.0311C18.249 10.171 18.2762 10.3206 18.2735 10.4711C18.2708 10.6216 18.2382 10.7701 18.1776 10.9079C18.117 11.0457 18.0297 11.1702 17.9207 11.274L12.8507 16.2272C12.6383 16.4346 12.3532 16.5507 12.0563 16.5507C11.7594 16.5507 11.4742 16.4346 11.2618 16.2272L6.19188 11.274C5.9765 11.0632 5.85361 10.7755 5.8502 10.4742C5.84679 10.1729 5.96314 9.88248 6.17368 9.66687Z" fill="white"/>
</svg>
