<svg width="23" height="23" viewBox="0 0 23 23" fill="none" xmlns="http://www.w3.org/2000/svg">
<path d="M1.28889 0C0.947054 0 0.619221 0.135793 0.377507 0.377507C0.135793 0.619221 0 0.947054 0 1.28889V6.44444H6.44444V0H1.28889ZM4.83333 4.83333H1.61111V1.61111H4.83333V4.83333Z" fill="#3B88FA"/>
<path d="M0 21.2666C0 21.6085 0.135793 21.9363 0.377507 22.178C0.619221 22.4197 0.947054 22.5555 1.28889 22.5555H6.44444V16.1111H0V21.2666ZM1.61111 17.7222H4.83333V20.9444H1.61111V17.7222Z" fill="#3B88FA"/>
<path d="M16.1111 22.5555H21.2667C21.6085 22.5555 21.9363 22.4197 22.178 22.178C22.4198 21.9363 22.5555 21.6085 22.5555 21.2666V16.1111H16.1111V22.5555ZM17.7222 17.7222H20.9444V20.9444H17.7222V17.7222Z" fill="#3B88FA"/>
<path d="M21.2667 0H16.1111V6.44444H22.5555V1.28889C22.5555 0.947054 22.4198 0.619221 22.178 0.377507C21.9363 0.135793 21.6085 0 21.2667 0ZM20.9444 4.83333H17.7222V1.61111H20.9444V4.83333Z" fill="#3B88FA"/>
<path d="M12.8889 4.83325V3.22214H9.66666V6.44436H11.2778V4.83325H12.8889Z" fill="#3B88FA"/>
<path d="M6.44444 6.4444H8.05555V8.05551H6.44444V6.4444Z" fill="#3B88FA"/>
<path d="M8.05553 8.05548H11.2778V9.66659H8.05553V8.05548Z" fill="#3B88FA"/>
<path d="M12.8889 1.61111V3.22222H14.5V0H8.05553V3.22222H9.66665V1.61111H12.8889Z" fill="#3B88FA"/>
<path d="M0 8.05548H1.61111V11.2777H0V8.05548Z" fill="#3B88FA"/>
<path d="M6.44445 9.66659V11.2777H4.83333V8.05548H3.22222V11.2777H1.61111V12.8888H0V14.4999H3.22222V12.8888H4.83333V14.4999H6.44445V12.8888H8.05556V9.66659H6.44445Z" fill="#3B88FA"/>
<path d="M12.8889 9.66668H14.5V11.2778H16.1111V9.66668H17.7222V8.05557H14.5V4.83334H12.8889V6.44445H11.2778V8.05557H12.8889V9.66668Z" fill="#3B88FA"/>
<path d="M11.2778 20.9445H8.05553V22.5556H14.5V20.9445H12.8889V19.3333H11.2778V20.9445Z" fill="#3B88FA"/>
<path d="M14.5 12.8889V11.2778H12.8889V9.66666H11.2778V11.2778H9.66666V12.8889H11.2778V14.5H12.8889V12.8889H14.5Z" fill="#3B88FA"/>
<path d="M20.9444 12.8888H22.5555V14.4999H20.9444V12.8888Z" fill="#3B88FA"/>
<path d="M14.5 12.8888H19.3333V14.4999H14.5V12.8888Z" fill="#3B88FA"/>
<path d="M20.9444 8.05548H19.3333V9.66659H17.7222V11.2777H19.3333V12.8888H20.9444V11.2777H22.5555V9.66659H20.9444V8.05548Z" fill="#3B88FA"/>
<path d="M12.8889 14.5H14.5V19.3333H12.8889V14.5Z" fill="#3B88FA"/>
<path d="M8.05553 19.3333H9.66665V17.7222H11.2778V16.111H9.66665V12.8888H8.05553V19.3333Z" fill="#3B88FA"/>
</svg>
