<svg width="19" height="18" viewBox="0 0 19 18" fill="none" xmlns="http://www.w3.org/2000/svg">
<path d="M17 5.707L17.707 6.414L18.414 5.707L17.707 5L17 5.707ZM12 17.707C12.2652 17.707 12.5196 17.6016 12.7071 17.4141C12.8946 17.2266 13 16.9722 13 16.707C13 16.4418 12.8946 16.1874 12.7071 15.9999C12.5196 15.8124 12.2652 15.707 12 15.707V17.707ZM12.707 11.414L17.707 6.414L16.293 5L11.293 10L12.707 11.414ZM17.707 5L12.707 0L11.293 1.414L16.293 6.414L17.707 5ZM17 4.707H6.5V6.707H17V4.707ZM6.5 17.707H12V15.707H6.5V17.707ZM0 11.207C0 12.9309 0.684819 14.5842 1.90381 15.8032C3.12279 17.0222 4.77609 17.707 6.5 17.707V15.707C5.30653 15.707 4.16193 15.2329 3.31802 14.389C2.47411 13.5451 2 12.4005 2 11.207H0ZM6.5 4.707C4.77609 4.707 3.12279 5.39182 1.90381 6.61081C0.684819 7.82979 0 9.48309 0 11.207H2C2 10.0135 2.47411 8.86893 3.31802 8.02502C4.16193 7.18111 5.30653 6.707 6.5 6.707V4.707Z" fill="white"/>
</svg>
